<svg width="17" height="18" viewBox="0 0 17 18" fill="none" xmlns="http://www.w3.org/2000/svg">
<g clip-path="url(#clip0_401_2842)">
<path d="M1.39746 4.96983C1.39746 4.59943 1.5446 4.2442 1.80651 3.98229C2.06842 3.72038 2.42365 3.57324 2.79405 3.57324H13.9667C14.3371 3.57324 14.6924 3.72038 14.9543 3.98229C15.2162 4.2442 15.3633 4.59943 15.3633 4.96983V13.3494C15.3633 13.7198 15.2162 14.075 14.9543 14.3369C14.6924 14.5988 14.3371 14.7459 13.9667 14.7459H2.79405C2.42365 14.7459 2.06842 14.5988 1.80651 14.3369C1.5446 14.075 1.39746 13.7198 1.39746 13.3494V4.96983Z" stroke="white" stroke-width="1.39659" stroke-linecap="round" stroke-linejoin="round"/>
<path d="M1.39746 6.36621L6.63536 10.5567C7.13065 10.953 7.74608 11.1689 8.3804 11.1689C9.01471 11.1689 9.63014 10.953 10.1254 10.5567L15.3633 6.36621" stroke="white" stroke-width="1.39659" stroke-linecap="round" stroke-linejoin="round"/>
</g>
<defs>
<clipPath id="clip0_401_2842">
<rect width="16.759" height="16.759" fill="white" transform="translate(0 0.78125)"/>
</clipPath>
</defs>
</svg>
