<svg width="17" height="18" viewBox="0 0 17 18" fill="none" xmlns="http://www.w3.org/2000/svg">
<g clip-path="url(#clip0_401_2156)">
<path d="M15.5635 14.5613V9.09645C15.5636 8.71625 15.486 8.34004 15.3355 7.99087C15.1851 7.6417 14.9649 7.32692 14.6886 7.06581L9.54005 2.20011C9.28074 1.95495 8.93744 1.81836 8.58059 1.81836C8.22375 1.81836 7.88044 1.95495 7.62114 2.20011L2.47262 7.06581C2.19625 7.32692 1.9761 7.6417 1.82565 7.99087C1.6752 8.34004 1.59762 8.71625 1.59766 9.09645V14.5613C1.59766 14.9317 1.7448 15.2869 2.00671 15.5488C2.26862 15.8107 2.62385 15.9579 2.99424 15.9579H14.1669C14.5373 15.9579 14.8926 15.8107 15.1545 15.5488C15.4164 15.2869 15.5635 14.9317 15.5635 14.5613Z" stroke="white" stroke-width="1.39659" stroke-linecap="round" stroke-linejoin="round"/>
</g>
<defs>
<clipPath id="clip0_401_2156">
<rect width="16.759" height="16.759" fill="white" transform="translate(0.201172 0.59668)"/>
</clipPath>
</defs>
</svg>
