<svg width="17" height="16" viewBox="0 0 17 16" fill="none" xmlns="http://www.w3.org/2000/svg">
<path d="M7.57102 3.95365L5.20869 1.22682C4.93636 0.912587 4.43708 0.913983 4.12075 1.23101L2.1781 3.17715C1.59991 3.75604 1.43442 4.61564 1.7689 5.30485C3.76715 9.44222 7.10389 12.7836 11.2385 14.7877C11.927 15.1222 12.7859 14.9567 13.3641 14.3778L15.3249 12.4135C15.6426 12.0958 15.6433 11.5937 15.3263 11.3214L12.589 8.97159C12.3027 8.72579 11.8578 8.75791 11.5708 9.04561L10.6184 9.99948C10.5696 10.0506 10.5054 10.0843 10.4357 10.0954C10.3659 10.1065 10.2944 10.0944 10.2322 10.0609C8.67533 9.16439 7.38387 7.87124 6.48936 6.31319C6.45587 6.25087 6.44374 6.17928 6.45484 6.1094C6.46594 6.03952 6.49965 5.97521 6.55081 5.92633L7.50049 4.97596C7.78819 4.68686 7.81961 4.23996 7.57102 3.95296V3.95365Z" stroke="white" stroke-width="1.39659" stroke-linecap="round" stroke-linejoin="round"/>
</svg>
